<?xml version="1.0" encoding="UTF-8" standalone="no"?>
<!-- Created with Inkscape (http://www.inkscape.org/) -->

<svg
   width="156.48557mm"
   height="60.443771mm"
   viewBox="0 0 156.48557 60.443772"
   version="1.1"
   id="svg8"
   inkscape:version="1.2.2 (b0a8486541, 2022-12-01)"
   sodipodi:docname="logo.svg"
   xmlns:inkscape="http://www.inkscape.org/namespaces/inkscape"
   xmlns:sodipodi="http://sodipodi.sourceforge.net/DTD/sodipodi-0.dtd"
   xmlns="http://www.w3.org/2000/svg"
   xmlns:svg="http://www.w3.org/2000/svg"
   xmlns:rdf="http://www.w3.org/1999/02/22-rdf-syntax-ns#"
   xmlns:cc="http://creativecommons.org/ns#"
   xmlns:dc="http://purl.org/dc/elements/1.1/">
  <defs
     id="defs2">
    <inkscape:path-effect
       effect="fillet_chamfer"
       id="path-effect889"
       is_visible="true"
       lpeversion="1"
       satellites_param="F,0,0,1,0,0.52916667,0,1 @ F,0,0,1,0,0.52916667,0,1 @ F,0,0,1,0,0.52916667,0,1 @ F,0,0,1,0,0.52916667,0,1 @ F,0,0,1,0,0.52916667,0,1 @ F,0,0,1,0,0.52916667,0,1 @ F,0,0,1,0,0.52916667,0,1 @ F,0,0,1,0,0.52916667,0,1 @ F,0,0,1,0,0.52916667,0,1 @ F,0,0,1,0,0.52916667,0,1 @ F,0,0,1,0,0.52916667,0,1 @ F,0,0,1,0,0.52916667,0,1 @ F,0,0,1,0,0.52916667,0,1 @ F,0,0,1,0,0.52916667,0,1 @ F,0,0,1,0,0.52916667,0,1 @ F,0,0,1,0,0.52916667,0,1 @ F,0,0,1,0,0.52916667,0,1 @ F,0,0,1,0,0.52916667,0,1 @ F,0,0,1,0,0.52916667,0,1 @ F,0,0,1,0,0.52916667,0,1 | F,0,0,1,0,0.52916667,0,1 @ F,0,0,1,0,0.52916667,0,1 @ F,0,0,1,0,0.52916667,0,1 @ F,0,0,1,0,0.52916667,0,1 @ F,0,0,1,0,0.52916667,0,1 @ F,0,0,1,0,0.52916667,0,1 | F,0,0,1,0,0.52916667,0,1 @ F,0,0,1,0,0.52916667,0,1 @ F,0,0,1,0,0.52916667,0,1 @ F,0,0,1,0,0.52916667,0,1 @ F,0,0,1,0,0.52916667,0,1 @ F,0,0,1,0,0.52916667,0,1 @ F,0,0,1,0,0.52916667,0,1 @ F,0,0,1,0,0.52916667,0,1 @ F,0,0,1,0,0.52916667,0,1 @ F,0,0,1,0,0.52916667,0,1 @ F,0,0,1,0,0.52916667,0,1 @ F,0,0,1,0,0.52916667,0,1 @ F,0,0,1,0,0.52916667,0,1 @ F,0,0,1,0,0.52916667,0,1 @ F,0,0,1,0,0.52916667,0,1 @ F,0,0,1,0,0.52916667,0,1 @ F,0,0,1,0,0.52916667,0,1 @ F,0,0,1,0,0.52916667,0,1 @ F,0,0,1,0,0.52916667,0,1 @ F,0,0,1,0,0.52916667,0,1 @ F,0,0,1,0,0.52916667,0,1 @ F,0,0,1,0,0.52916667,0,1 @ F,0,0,1,0,0.52916667,0,1 @ F,0,0,1,0,0.52916667,0,1 @ F,0,0,1,0,0.52916667,0,1 | F,0,0,1,0,0.52916667,0,1 @ F,0,0,1,0,0.52916667,0,1 @ F,0,0,1,0,0.52916667,0,1 @ F,0,0,1,0,0.52916667,0,1 @ F,0,0,1,0,0.52916667,0,1 @ F,0,0,1,0,0.52916667,0,1 @ F,0,0,1,0,0.52916667,0,1 @ F,0,0,1,0,0.52916667,0,1 @ F,0,0,1,0,0.52916667,0,1 @ F,0,0,1,0,0.52916667,0,1 @ F,0,0,1,0,0.52916667,0,1 @ F,0,0,1,0,0.52916667,0,1 @ F,0,0,1,0,0.52916667,0,1 @ F,0,0,1,0,0.52916667,0,1 @ F,0,0,1,0,0.52916667,0,1 @ F,0,0,1,0,0.52916667,0,1 | F,0,0,1,0,0.52916667,0,1 @ F,0,0,1,0,0.52916667,0,1 @ F,0,0,1,0,0.52916667,0,1 @ F,0,0,1,0,0.52916667,0,1 @ F,0,0,1,0,0.52916667,0,1 @ F,0,0,1,0,0.52916667,0,1 | F,0,0,1,0,0.52916667,0,1 @ F,0,0,1,0,0.52916667,0,1 @ F,0,0,1,0,0.52916667,0,1 @ F,0,0,1,0,0.52916667,0,1 @ F,0,0,1,0,0.52916667,0,1 @ F,0,0,1,0,0.52916667,0,1"
       unit="px"
       method="auto"
       mode="F"
       radius="2"
       chamfer_steps="1"
       flexible="false"
       use_knot_distance="true"
       apply_no_radius="true"
       apply_with_radius="true"
       only_selected="false"
       hide_knots="false"
       nodesatellites_param="F,0,0,1,0,0.52916667,0,1 @ F,0,0,1,0,0.52916667,0,1 @ F,0,0,1,0,0.52916667,0,1 @ F,0,0,1,0,0.52916667,0,1 @ F,0,0,1,0,0.52916667,0,1 @ F,0,0,1,0,0.52916667,0,1 @ F,0,0,1,0,0.52916667,0,1 @ F,0,0,1,0,0.52916667,0,1 @ F,0,0,1,0,0.52916667,0,1 @ F,0,0,1,0,0.52916667,0,1 @ F,0,0,1,0,0.52916667,0,1 @ F,0,0,1,0,0.52916667,0,1 @ F,0,0,1,0,0.52916667,0,1 @ F,0,0,1,0,0.52916667,0,1 @ F,0,0,1,0,0.52916667,0,1 @ F,0,0,1,0,0.52916667,0,1 @ F,0,0,1,0,0.52916667,0,1 @ F,0,0,1,0,0.52916667,0,1 @ F,0,0,1,0,0.52916667,0,1 @ F,0,0,1,0,0.52916667,0,1 | F,0,0,1,0,0.52916667,0,1 @ F,0,0,1,0,0.52916667,0,1 @ F,0,0,1,0,0.52916667,0,1 @ F,0,0,1,0,0.52916667,0,1 @ F,0,0,1,0,0.52916667,0,1 @ F,0,0,1,0,0.52916667,0,1 | F,0,0,1,0,0.52916667,0,1 @ F,0,0,1,0,0.52916667,0,1 @ F,0,0,1,0,0.52916667,0,1 @ F,0,0,1,0,0.52916667,0,1 @ F,0,0,1,0,0.52916667,0,1 @ F,0,0,1,0,0.52916667,0,1 @ F,0,0,1,0,0.52916667,0,1 @ F,0,0,1,0,0.52916667,0,1 @ F,0,0,1,0,0.52916667,0,1 @ F,0,0,1,0,0.52916667,0,1 @ F,0,0,1,0,0.52916667,0,1 @ F,0,0,1,0,0.52916667,0,1 @ F,0,0,1,0,0.52916667,0,1 @ F,0,0,1,0,0.52916667,0,1 @ F,0,0,1,0,0.52916667,0,1 @ F,0,0,1,0,0.52916667,0,1 @ F,0,0,1,0,0.52916667,0,1 @ F,0,0,1,0,0.52916667,0,1 @ F,0,0,1,0,0.52916667,0,1 @ F,0,0,1,0,0.52916667,0,1 @ F,0,0,1,0,0.52916667,0,1 @ F,0,0,1,0,0.52916667,0,1 @ F,0,0,1,0,0.52916667,0,1 @ F,0,0,1,0,0.52916667,0,1 @ F,0,0,1,0,0.52916667,0,1 | F,0,0,1,0,0.52916667,0,1 @ F,0,0,1,0,0.52916667,0,1 @ F,0,0,1,0,0.52916667,0,1 @ F,0,0,1,0,0.52916667,0,1 @ F,0,0,1,0,0.52916667,0,1 @ F,0,0,1,0,0.52916667,0,1 @ F,0,0,1,0,0.52916667,0,1 @ F,0,0,1,0,0.52916667,0,1 @ F,0,0,1,0,0.52916667,0,1 @ F,0,0,1,0,0.52916667,0,1 @ F,0,0,1,0,0.52916667,0,1 @ F,0,0,1,0,0.52916667,0,1 @ F,0,0,1,0,0.52916667,0,1 @ F,0,0,1,0,0.52916667,0,1 @ F,0,0,1,0,0.52916667,0,1 @ F,0,0,1,0,0.52916667,0,1 | F,0,0,1,0,0.52916667,0,1 @ F,0,0,1,0,0.52916667,0,1 @ F,0,0,1,0,0.52916667,0,1 @ F,0,0,1,0,0.52916667,0,1 @ F,0,0,1,0,0.52916667,0,1 @ F,0,0,1,0,0.52916667,0,1 | F,0,0,1,0,0.52916667,0,1 @ F,0,0,1,0,0.52916667,0,1 @ F,0,0,1,0,0.52916667,0,1 @ F,0,0,1,0,0.52916667,0,1 @ F,0,0,1,0,0.52916667,0,1 @ F,0,0,1,0,0.52916667,0,1" />
    <inkscape:path-effect
       effect="offset"
       id="path-effect972"
       is_visible="true"
       lpeversion="1.2"
       linejoin_type="miter"
       unit="mm"
       offset="0.2"
       miter_limit="4"
       attempt_force_join="false"
       update_on_knot_move="true" />
  </defs>
  <sodipodi:namedview
     id="base"
     pagecolor="#ffffff"
     bordercolor="#666666"
     borderopacity="1.0"
     inkscape:pageopacity="0.0"
     inkscape:pageshadow="2"
     inkscape:zoom="1.5182462"
     inkscape:cx="111.31264"
     inkscape:cy="22.064933"
     inkscape:document-units="mm"
     inkscape:current-layer="layer1"
     showgrid="false"
     showguides="true"
     inkscape:guide-bbox="true"
     inkscape:window-width="1766"
     inkscape:window-height="1346"
     inkscape:window-x="0"
     inkscape:window-y="60"
     inkscape:window-maximized="0"
     inkscape:snap-global="true"
     inkscape:snap-bbox="true"
     inkscape:snap-bbox-midpoints="false"
     inkscape:pagecheckerboard="0"
     inkscape:bbox-nodes="true"
     inkscape:snap-intersection-paths="true"
     inkscape:object-paths="true"
     inkscape:snap-bbox-edge-midpoints="true"
     fit-margin-top="0"
     fit-margin-left="0"
     fit-margin-right="0"
     fit-margin-bottom="0"
     inkscape:showpageshadow="2"
     inkscape:deskcolor="#d1d1d1">
    <inkscape:grid
       type="axonomgrid"
       id="grid815"
       units="mm"
       empspacing="12"
       spacingy="1"
       originx="-25.582032"
       originy="-19.09881" />
    <sodipodi:guide
       position="1082.9303,-1513.2016"
       orientation="0,1"
       id="guide37689"
       inkscape:locked="false" />
    <sodipodi:guide
       position="1082.9303,-1561.2016"
       orientation="0,1"
       id="guide37691"
       inkscape:locked="false" />
    <sodipodi:guide
       position="1082.9303,-1525.2016"
       orientation="0,1"
       id="guide37693"
       inkscape:locked="false" />
    <sodipodi:guide
       position="1082.9303,-1549.2016"
       orientation="0,1"
       id="guide37695"
       inkscape:locked="false" />
    <sodipodi:guide
       position="-13.457674,28.54259"
       orientation="0,-1"
       id="guide894"
       inkscape:locked="false" />
    <sodipodi:guide
       position="9.9250095,50.04259"
       orientation="0,-1"
       id="guide896"
       inkscape:locked="false" />
    <sodipodi:guide
       position="101.23635,50.04259"
       orientation="1,0"
       id="guide1030"
       inkscape:locked="false" />
    <sodipodi:guide
       position="57.352559,45.131499"
       orientation="1,0"
       id="guide1032"
       inkscape:locked="false" />
    <sodipodi:guide
       position="108.24422,21.691361"
       orientation="0,-1"
       id="guide1034"
       inkscape:locked="false" />
  </sodipodi:namedview>
  <metadata
     id="metadata5">
    <rdf:RDF>
      <cc:Work
         rdf:about="">
        <dc:format>image/svg+xml</dc:format>
        <dc:type
           rdf:resource="http://purl.org/dc/dcmitype/StillImage" />
      </cc:Work>
    </rdf:RDF>
  </metadata>
  <g
     inkscape:label="Layer 1"
     inkscape:groupmode="layer"
     id="layer1"
     transform="translate(-25.582031,-19.09881)">
    <path
       id="path968"
       style="fill:#0065ac;fill-opacity:1;fill-rule:evenodd;stroke:none;stroke-width:0.0700042px;stroke-linecap:butt;stroke-linejoin:miter;stroke-opacity:1"
       d="m 43.508533,19.221628 -6.011207,3.470806 a 0.91643846,0.91643846 0.0011682 0 1 -0.916517,-1.8e-5 l -1.68115,-0.97077 a 0.9162711,0.9162711 179.99664 0 0 -0.916475,5.4e-5 l -2.745665,1.585897 a 0.91674198,0.91674198 119.99463 0 0 -0.458222,0.793836 v 1.939712 a 0.9167438,0.9167438 119.99458 0 1 -0.458222,0.793837 l -4.280822,2.472614 a 0.9167438,0.9167438 119.99458 0 0 -0.458222,0.793837 v 18.0569 2.115234 a 0.91692071,0.91692071 60.010206 0 0 0.458177,0.793914 l 0.915677,0.5291 a 2286.8691,2286.8691 30.007154 0 0 0.916477,0.529282 l 1.979885,1.142805 a 0.3055521,0.3055521 149.99695 0 0 0.4583,-0.264632 l 0,-1.402603 a 0.91721489,0.91721489 60.018162 0 0 -0.458104,-0.794041 l -1.681448,-0.972206 a 0.91721489,0.91721489 60.018162 0 1 -0.458104,-0.794041 v -17.70729 a 0.91688301,0.91688301 119.99081 0 1 0.458187,-0.793897 l 3.214485,-1.857259 a 0.91613021,0.91613021 179.99282 0 1 0.91644,-1.15e-4 l 1.68115,0.97077 a 0.91651552,0.91651552 0.00325425 0 0 0.916536,5.2e-5 l 2.747497,-1.586109 a 0.91649747,0.91649747 120.00125 0 0 0.458283,-0.79373 v -1.939712 a 0.91690648,0.91690648 119.99018 0 1 0.458181,-0.793907 l 4.944966,-2.857239 a 0.916451,0.916451 179.98286 0 1 0.91652,-2.74e-4 l 1.682931,0.971068 a 0.91673323,0.91673323 179.9905 0 0 0.916591,-1.52e-4 l 1.214356,-0.701233 a 0.30550399,0.30550399 89.994781 0 0 -4.8e-5,-0.529153 l -3.813869,-2.201399 a 0.91662478,0.91662478 179.99612 0 0 -0.916564,6.2e-5 z m -8.609052,4.961266 0.617053,0.356869 a 0.91733263,0.91733263 60.021345 0 1 0.458075,0.794092 v 0.70729 a 0.91733263,0.91733263 119.97865 0 1 -0.458075,0.794092 l -0.617053,0.356869 a 0.91496847,0.91496847 0 0 1 -0.91615,0 l -0.617053,-0.356869 a 0.91733263,0.91733263 60.021345 0 1 -0.458075,-0.794092 v -0.70729 a 0.91733263,0.91733263 119.97865 0 1 0.458075,-0.794092 l 0.617053,-0.356869 a 0.91496847,0.91496847 0 0 1 0.91615,0 z m 17.27115,0.03871 -17.470168,10.086081 a 0.91652881,0.91652881 120.0004 0 0 -0.458275,0.793744 v 5.939712 a 0.91721471,0.91721471 119.98184 0 1 -0.458104,0.794041 l -1.681449,0.972206 a 0.91721471,0.91721471 119.98184 0 0 -0.458104,0.794041 l 0,3.172134 a 0.91721471,0.91721471 60.018157 0 0 0.458104,0.794041 l 1.681449,0.972206 a 0.91721471,0.91721471 60.018157 0 1 0.458104,0.794041 v 5.939712 a 0.91692071,0.91692071 60.010206 0 0 0.458177,0.793914 l 0.915677,0.5291 a 2863.0058,2863.0058 30.009822 0 0 0.916452,0.529324 l 6.976028,4.027487 a 0.91689642,0.91689642 0.00878088 0 0 0.916631,1.4e-4 l 0.149694,-0.08636 a 0.91620508,0.91620508 120.00916 0 0 0.458356,-0.793604 l 0,-18.939712 A 0.91676162,0.91676162 119.9941 0 1 45.49142,40.54001 l 5.612863,-3.242129 A 0.30544185,0.30544185 29.994098 0 1 51.5625,37.56237 v 18.941666 a 0.30548758,0.30548758 29.997812 0 0 0.458252,0.264549 l 1.214355,-0.701233 a 0.91662439,0.91662439 119.99781 0 0 0.458252,-0.793785 V 35.103386 a 0.91765905,0.91765905 60.030168 0 0 -0.457993,-0.794233 l -0.15042,-0.08706 a 0.91537068,0.91537068 0.02855605 0 0 -0.91625,-4.57e-4 l -8.808095,5.086017 a 0.91660309,0.91660309 119.99839 0 0 -0.458257,0.793776 V 57.81263 a 0.30544185,0.30544185 150.0059 0 1 -0.458217,0.264489 L 36.831264,54.83499 a 0.91676162,0.91676162 60.005902 0 1 -0.458217,-0.793845 v -4.70729 a 0.91721489,0.91721489 119.98184 0 1 0.458104,-0.794041 l 1.681448,-0.972206 a 0.91721489,0.91721489 119.98184 0 0 0.458104,-0.794041 v -3.172134 a 0.91721489,0.91721489 60.018162 0 0 -0.458104,-0.794041 l -1.681448,-0.972206 a 0.91721489,0.91721489 60.018162 0 1 -0.458104,-0.794041 v -4.70729 a 0.9166131,0.9166131 119.99812 0 1 0.458254,-0.79378 L 54.301512,25.452113 a 0.30556457,0.30556457 90.0003 0 0 2e-6,-0.529231 l -1.214356,-0.701233 a 0.9164777,0.9164777 0.00258113 0 0 -0.916527,-4.1e-5 z m 6.062419,3.49986 -1.2161,0.701595 a 0.30552722,0.30552722 90.019381 0 0 -1.79e-4,0.529184 l 2.747708,1.587694 a 0.91692071,0.91692071 60.010206 0 1 0.458177,0.793914 v 5.70729 a 0.91721489,0.91721489 119.98184 0 1 -0.458104,0.794041 l -1.681448,0.972206 A 0.91721489,0.91721489 119.98184 0 0 57.625,39.601433 v 3.172134 a 0.91721489,0.91721489 60.018162 0 0 0.458104,0.794041 l 1.681448,0.972206 a 0.91721489,0.91721489 60.018162 0 1 0.458104,0.794041 l 0,3.70729 a 0.91721489,0.91721489 119.98184 0 1 -0.458104,0.794041 l -1.681448,0.972206 A 0.91721489,0.91721489 119.98184 0 0 57.625,51.601433 v 1.402603 a 0.30548884,0.30548884 29.997914 0 0 0.458253,0.26455 l 3.81201,-2.201235 a 0.91662061,0.91662061 119.99791 0 0 0.458253,-0.793784 v -4.939712 a 0.91721489,0.91721489 119.98184 0 1 0.458104,-0.794041 l 1.681448,-0.972206 a 0.91721489,0.91721489 119.98184 0 0 0.458104,-0.794041 V 39.601433 A 0.91721489,0.91721489 60.018162 0 0 64.493068,38.807392 L 62.81162,37.835186 a 0.91721489,0.91721489 60.018162 0 1 -0.458104,-0.794041 l 0,-6.939712 A 0.91674185,0.91674185 60.005367 0 0 61.895294,29.307597 L 59.149628,27.7217 a 0.91668426,0.91668426 0.01454155 0 0 -0.916578,-2.32e-4 z m 3.512134,11.961426 0.617053,0.356869 a 0.91733263,0.91733263 60.021345 0 1 0.458075,0.794092 l 0,0.70729 a 0.91733263,0.91733263 119.97865 0 1 -0.458075,0.794092 l -0.617053,0.356869 a 0.91438545,0.91438545 0.0158301 0 1 -0.916003,-2.53e-4 L 60.213787,42.33549 a 0.91791847,0.91791847 60.037176 0 1 -0.457928,-0.794345 v -0.70729 a 0.91791847,0.91791847 119.96282 0 1 0.457928,-0.794345 l 0.615394,-0.356363 a 0.91438545,0.91438545 179.98417 0 1 0.916003,-2.53e-4 z m -25.980468,4 0.617053,0.356869 a 0.91733263,0.91733263 60.021345 0 1 0.458075,0.794092 v 0.70729 a 0.91733263,0.91733263 119.97865 0 1 -0.458075,0.794092 l -0.617053,0.356869 a 0.91496847,0.91496847 180 0 1 -0.91615,0 l -0.617053,-0.356869 a 0.91733263,0.91733263 60.021345 0 1 -0.458075,-0.794092 v -0.70729 a 0.91733263,0.91733263 119.97865 0 1 0.458075,-0.794092 l 0.617053,-0.356869 a 0.91496847,0.91496847 0 0 1 0.91615,0 z"
       inkscape:path-effect="#path-effect972;#path-effect889"
       inkscape:original-d="m 37.039423,44.188158 v 1.999892 l -1.7323,0.9997 -1.732,-0.9997 v -1.999892 l 1.732,-1.000394 z m 6.92831,-25.000209 -6.92778,3.999882 -2.5983,-1.500193 -3.4639,1.999791 v 2.999887 l -5.19702,3.000587 v 18.999746 2.0004 l 1.7322,0.9999 2.5983,1.50019 v -2.00039 l -2.5983,-1.5002 V 30.687798 l 4.33092,-2.500389 2.5978,1.500193 3.4639,-2.000391 v -2.999287 l 6.0619,-3.499984 2.5983,1.500193 1.7317,-1.000395 z m -9.5265,15.500131 -2.1e-4,6.99979 -2.5978,1.499693 v 3.999787 l 2.5978,1.50009 2.1e-4,7.000189 1.7322,1.00049 7.7943,4.49998 v 0 l 0.8656,-0.4997 V 40.688154 l 6.9283,-3.999682 3.3e-4,19.999447 1.73205,-0.99999 -1.8e-4,-20.999349 -0.8661,-0.500197 -9.5261,5.499875 v 18.999751 l -6.9282,-3.99978 -2.1e-4,-6.000289 2.5977,-1.50009 v -3.999786 l -2.5977,-1.499594 2.1e-4,-5.999994 18.1866,-10.500553 -1.73205,-0.999996 z m -1.73178,-8.000664 v -1.999991 l 1.7322,-0.999996 1.7319,0.999996 3e-4,1.999891 -1.7322,1.000896 z m 25.98099,1.000395 -1.73233,1.000096 3.4641,1.999991 -4.2e-4,7.000473 -2.5978,1.499694 v 3.999782 l 2.5978,1.500093 4.2e-4,5.000019 -2.59807,1.49998 v 1.99999 l 4.33012,-2.49998 -2.7e-4,-6.000009 2.5978,-1.500093 v -3.999782 l -2.5978,-1.499694 4.2e-4,-8.000368 z m 2.59705,15.499836 -1.7318,-0.999795 v -1.999891 l 1.7318,-1.000296 1.7326,1.000296 v 1.999891 z"
       sodipodi:nodetypes="cccccccccccccccccccccccccccccccccccccccccccccccccccccccccccccccccccccccccccccccccccccc"
       inkscape:export-filename="/home/simon/code/scipp/scippnexus/docs/_static/logo.png"
       inkscape:export-xdpi="300.11737"
       inkscape:export-ydpi="300.11737" />
    <text
       id="text897"
       y="50.697128"
       x="81.267693"
       style="font-style:normal;font-variant:normal;font-weight:normal;font-stretch:normal;font-size:41.0089px;line-height:19.2229px;font-family:Lato;-inkscape-font-specification:Lato;letter-spacing:0px;word-spacing:0px;fill:#0065ac;fill-opacity:1;stroke:none;stroke-width:0.264583px;stroke-linecap:butt;stroke-linejoin:miter;stroke-opacity:1"
       xml:space="preserve"
       inkscape:export-filename="/home/simon/code/scipp/scippnexus/docs/_static/logo.png"
       inkscape:export-xdpi="300.11737"
       inkscape:export-ydpi="300.11737"><tspan
         style="fill:#0065ac;fill-opacity:1;stroke-width:0.264583px"
         y="50.697128"
         x="81.267693"
         id="tspan895"
         sodipodi:role="line"><tspan
           style="font-style:normal;font-variant:normal;font-weight:bold;font-stretch:normal;font-family:Lato;-inkscape-font-specification:'Lato Bold';fill:#0065ac;fill-opacity:1;stroke-width:0.264583px"
           id="tspan891">sci</tspan><tspan
           id="tspan893"
           style="font-style:normal;font-variant:normal;font-weight:300;font-stretch:normal;font-family:Lato;-inkscape-font-specification:'Lato Light';fill:#0065ac;fill-opacity:1;stroke-width:0.264583px">pp</tspan></tspan></text>
    <g
       aria-label="uncertainty"
       id="text5266"
       style="font-size:9.26903px;line-height:7.44833px;font-family:Lato;-inkscape-font-specification:Lato;letter-spacing:0px;word-spacing:0px;fill:#0065ac;stroke-width:0.264583px">
      <path
         d="m 87.254785,58.687383 v 4.968199 h -0.66737 l -0.120498,-0.658101 h -0.03708 q -0.240995,0.3893 -0.66737,0.57468 -0.426375,0.176112 -0.908365,0.176112 -0.899096,0 -1.353278,-0.426376 -0.454183,-0.435644 -0.454183,-1.381085 v -3.253429 h 0.824944 v 3.197815 q 0,1.186436 1.103015,1.186436 0.824943,0 1.14009,-0.463452 0.324416,-0.463451 0.324416,-1.33474 v -2.586059 z"
         id="path436" />
      <path
         d="m 91.22193,58.594692 q 0.889827,0 1.344009,0.435645 0.454183,0.426375 0.454183,1.390354 v 3.234891 h -0.806406 v -3.179277 q 0,-1.195705 -1.112284,-1.195705 -0.824943,0 -1.14009,0.463452 -0.315147,0.463451 -0.315147,1.33474 v 2.57679 H 88.83052 v -4.968199 h 0.658101 l 0.120498,0.676639 h 0.04634 q 0.240995,-0.3893 0.66737,-0.57468 0.426375,-0.19465 0.899096,-0.19465 z"
         id="path438" />
      <path
         d="m 96.551622,63.748273 q -0.658101,0 -1.177167,-0.268802 -0.509796,-0.268802 -0.806405,-0.834213 -0.28734,-0.565411 -0.28734,-1.445968 0,-0.917634 0.305878,-1.492314 0.305878,-0.57468 0.824943,-0.843482 0.528335,-0.268802 1.195705,-0.268802 0.38003,0 0.732254,0.08342 0.352223,0.07415 0.574679,0.18538 l -0.250263,0.676639 q -0.222457,-0.08342 -0.519066,-0.157573 -0.296609,-0.07415 -0.556142,-0.07415 -1.464507,0 -1.464507,1.881613 0,0.899095 0.352224,1.381085 0.361492,0.47272 1.065938,0.47272 0.407837,0 0.713715,-0.08342 0.315147,-0.08342 0.57468,-0.203918 v 0.722984 q -0.250264,0.129766 -0.556142,0.194649 -0.296609,0.07415 -0.722984,0.07415 z"
         id="path440" />
      <path
         d="m 100.9266,58.594692 q 0.63956,0 1.09375,0.278071 0.46345,0.278071 0.70444,0.787868 0.25027,0.500527 0.25027,1.177166 v 0.491259 h -3.401738 q 0.01854,0.843482 0.426375,1.288395 0.417103,0.435645 1.158633,0.435645 0.47272,0 0.83421,-0.08342 0.37076,-0.09269 0.76006,-0.259533 v 0.713716 q -0.38003,0.166842 -0.75079,0.240994 -0.37076,0.08342 -0.88056,0.08342 -0.70445,0 -1.25132,-0.28734 -0.537603,-0.28734 -0.843481,-0.852751 -0.296609,-0.57468 -0.296609,-1.399623 0,-0.815675 0.268802,-1.399624 0.278071,-0.583949 0.769329,-0.899096 0.500529,-0.315147 1.158629,-0.315147 z m -0.009,0.66737 q -0.58395,0 -0.926902,0.380031 -0.333685,0.370761 -0.398568,1.038131 h 2.53044 q -0.009,-0.630294 -0.2966,-1.019593 -0.28734,-0.398569 -0.90837,-0.398569 z"
         id="path442" />
      <path
         d="m 106.55289,58.594692 q 0.13904,0 0.29661,0.01854 0.16685,0.0093 0.28734,0.03708 l -0.10196,0.750792 q -0.12049,-0.02781 -0.2688,-0.04634 -0.13903,-0.01854 -0.2688,-0.01854 -0.38003,0 -0.71372,0.213187 -0.33368,0.203919 -0.5376,0.583949 -0.19465,0.370761 -0.19465,0.871289 v 2.650942 h -0.81567 v -4.968199 h 0.66737 l 0.0927,0.908364 h 0.0371 q 0.241,-0.407837 0.62103,-0.704446 0.38003,-0.296609 0.89909,-0.296609 z"
         id="path444" />
      <path
         d="m 109.7229,63.080903 q 0.18538,0 0.38003,-0.02781 0.19465,-0.03708 0.31515,-0.07415 v 0.621025 q -0.12977,0.06488 -0.37076,0.10196 -0.241,0.04634 -0.46345,0.04634 -0.3893,0 -0.72299,-0.129767 -0.32441,-0.139035 -0.52833,-0.47272 -0.20392,-0.333685 -0.20392,-0.936172 v -2.891937 h -0.70445 v -0.3893 l 0.71372,-0.324416 0.32441,-1.056669 h 0.48199 v 1.140091 h 1.4367 v 0.630294 h -1.4367 v 2.873399 q 0,0.454182 0.21319,0.676639 0.22246,0.213188 0.56541,0.213188 z"
         id="path446" />
      <path
         d="m 113.29148,58.603961 q 0.90836,0 1.34401,0.398569 0.43564,0.398568 0.43564,1.269857 v 3.383195 h -0.59322 l -0.15757,-0.704446 h -0.0371 q -0.32441,0.407837 -0.6859,0.602487 -0.35223,0.19465 -0.98252,0.19465 -0.67664,0 -1.12155,-0.352223 -0.44492,-0.361493 -0.44492,-1.121553 0,-0.741522 0.58395,-1.140091 0.58395,-0.407837 1.79819,-0.444913 l 0.84349,-0.02781 v -0.296609 q 0,-0.621025 -0.26881,-0.86202 -0.2688,-0.240995 -0.76006,-0.240995 -0.3893,0 -0.74152,0.120498 -0.35222,0.111228 -0.6581,0.259533 l -0.25026,-0.611756 q 0.32441,-0.176112 0.76933,-0.296609 0.44491,-0.129767 0.9269,-0.129767 z m 0.24099,2.650943 q -0.9269,0.03708 -1.28839,0.296609 -0.35223,0.259533 -0.35223,0.732253 0,0.417106 0.25027,0.611756 0.25953,0.19465 0.6581,0.19465 0.63029,0 1.0474,-0.342954 0.41711,-0.352224 0.41711,-1.075208 v -0.444913 z"
         id="path448" />
      <path
         d="m 117.0269,56.824308 q 0.18538,0 0.32442,0.129766 0.1483,0.120497 0.1483,0.389299 0,0.259533 -0.1483,0.3893 -0.13904,0.129766 -0.32442,0.129766 -0.20391,0 -0.34295,-0.129766 -0.13904,-0.129767 -0.13904,-0.3893 0,-0.268802 0.13904,-0.389299 0.13904,-0.129766 0.34295,-0.129766 z m 0.39857,1.863075 v 4.968199 h -0.81567 v -4.968199 z"
         id="path450" />
      <path
         d="m 121.39261,58.594692 q 0.88983,0 1.34401,0.435645 0.45419,0.426375 0.45419,1.390354 v 3.234891 h -0.80641 v -3.179277 q 0,-1.195705 -1.11228,-1.195705 -0.82495,0 -1.14009,0.463452 -0.31515,0.463451 -0.31515,1.33474 v 2.57679 h -0.81568 v -4.968199 h 0.65811 l 0.12049,0.676639 h 0.0464 q 0.24099,-0.3893 0.66737,-0.57468 0.42637,-0.19465 0.89909,-0.19465 z"
         id="path452" />
      <path
         d="m 126.38862,63.080903 q 0.18538,0 0.38003,-0.02781 0.19465,-0.03708 0.31515,-0.07415 v 0.621025 q -0.12977,0.06488 -0.37076,0.10196 -0.241,0.04634 -0.46345,0.04634 -0.3893,0 -0.72299,-0.129767 -0.32441,-0.139035 -0.52833,-0.47272 -0.20392,-0.333685 -0.20392,-0.936172 v -2.891937 h -0.70445 v -0.3893 l 0.71372,-0.324416 0.32441,-1.056669 h 0.48199 v 1.140091 h 1.4367 v 0.630294 h -1.4367 v 2.873399 q 0,0.454182 0.21319,0.676639 0.22246,0.213188 0.56541,0.213188 z"
         id="path454" />
      <path
         d="m 127.29698,58.687383 h 0.87129 l 1.07521,2.827054 q 0.13904,0.370761 0.25026,0.713715 0.11123,0.333685 0.16685,0.639563 h 0.0371 q 0.0556,-0.231726 0.17612,-0.602487 0.12049,-0.38003 0.25026,-0.76006 l 1.01032,-2.817785 h 0.88056 l -2.14114,5.654108 q -0.25954,0.704446 -0.67664,1.121552 -0.40784,0.417107 -1.13083,0.417107 -0.22245,0 -0.38929,-0.02781 -0.16685,-0.01854 -0.28734,-0.04634 v -0.648832 q 0.10195,0.01854 0.24099,0.03708 0.1483,0.01854 0.30588,0.01854 0.42637,0 0.68591,-0.240994 0.2688,-0.240995 0.4171,-0.639563 l 0.25954,-0.658102 z"
         id="path456" />
    </g>
  </g>
</svg>
