<?xml version="1.0" encoding="UTF-8" standalone="no"?>
<!-- Created with Inkscape (http://www.inkscape.org/) -->

<svg
   width="146.60236mm"
   height="45.356594mm"
   viewBox="0 0 146.60236 45.356595"
   version="1.1"
   id="svg8"
   inkscape:version="1.3 (0e150ed6c4, 2023-07-21)"
   sodipodi:docname="logo-dark.svg"
   inkscape:export-filename="../docs/_static/logo.svg"
   inkscape:export-xdpi="96"
   inkscape:export-ydpi="96"
   xmlns:inkscape="http://www.inkscape.org/namespaces/inkscape"
   xmlns:sodipodi="http://sodipodi.sourceforge.net/DTD/sodipodi-0.dtd"
   xmlns="http://www.w3.org/2000/svg"
   xmlns:svg="http://www.w3.org/2000/svg"
   xmlns:rdf="http://www.w3.org/1999/02/22-rdf-syntax-ns#"
   xmlns:cc="http://creativecommons.org/ns#"
   xmlns:dc="http://purl.org/dc/elements/1.1/">
  <defs
     id="defs2">
    <inkscape:path-effect
       effect="fillet_chamfer"
       id="path-effect889"
       is_visible="true"
       lpeversion="1"
       satellites_param="F,0,0,1,0,0.52916667,0,1 @ F,0,0,1,0,0.52916667,0,1 @ F,0,0,1,0,0.52916667,0,1 @ F,0,0,1,0,0.52916667,0,1 @ F,0,0,1,0,0.52916667,0,1 @ F,0,0,1,0,0.52916667,0,1 @ F,0,0,1,0,0.52916667,0,1 @ F,0,0,1,0,0.52916667,0,1 @ F,0,0,1,0,0.52916667,0,1 @ F,0,0,1,0,0.52916667,0,1 @ F,0,0,1,0,0.52916667,0,1 @ F,0,0,1,0,0.52916667,0,1 @ F,0,0,1,0,0.52916667,0,1 @ F,0,0,1,0,0.52916667,0,1 @ F,0,0,1,0,0.52916667,0,1 @ F,0,0,1,0,0.52916667,0,1 @ F,0,0,1,0,0.52916667,0,1 @ F,0,0,1,0,0.52916667,0,1 @ F,0,0,1,0,0.52916667,0,1 @ F,0,0,1,0,0.52916667,0,1 | F,0,0,1,0,0.52916667,0,1 @ F,0,0,1,0,0.52916667,0,1 @ F,0,0,1,0,0.52916667,0,1 @ F,0,0,1,0,0.52916667,0,1 @ F,0,0,1,0,0.52916667,0,1 @ F,0,0,1,0,0.52916667,0,1 | F,0,0,1,0,0.52916667,0,1 @ F,0,0,1,0,0.52916667,0,1 @ F,0,0,1,0,0.52916667,0,1 @ F,0,0,1,0,0.52916667,0,1 @ F,0,0,1,0,0.52916667,0,1 @ F,0,0,1,0,0.52916667,0,1 @ F,0,0,1,0,0.52916667,0,1 @ F,0,0,1,0,0.52916667,0,1 @ F,0,0,1,0,0.52916667,0,1 @ F,0,0,1,0,0.52916667,0,1 @ F,0,0,1,0,0.52916667,0,1 @ F,0,0,1,0,0.52916667,0,1 @ F,0,0,1,0,0.52916667,0,1 @ F,0,0,1,0,0.52916667,0,1 @ F,0,0,1,0,0.52916667,0,1 @ F,0,0,1,0,0.52916667,0,1 @ F,0,0,1,0,0.52916667,0,1 @ F,0,0,1,0,0.52916667,0,1 @ F,0,0,1,0,0.52916667,0,1 @ F,0,0,1,0,0.52916667,0,1 @ F,0,0,1,0,0.52916667,0,1 @ F,0,0,1,0,0.52916667,0,1 @ F,0,0,1,0,0.52916667,0,1 @ F,0,0,1,0,0.52916667,0,1 @ F,0,0,1,0,0.52916667,0,1 | F,0,0,1,0,0.52916667,0,1 @ F,0,0,1,0,0.52916667,0,1 @ F,0,0,1,0,0.52916667,0,1 @ F,0,0,1,0,0.52916667,0,1 @ F,0,0,1,0,0.52916667,0,1 @ F,0,0,1,0,0.52916667,0,1 @ F,0,0,1,0,0.52916667,0,1 @ F,0,0,1,0,0.52916667,0,1 @ F,0,0,1,0,0.52916667,0,1 @ F,0,0,1,0,0.52916667,0,1 @ F,0,0,1,0,0.52916667,0,1 @ F,0,0,1,0,0.52916667,0,1 @ F,0,0,1,0,0.52916667,0,1 @ F,0,0,1,0,0.52916667,0,1 @ F,0,0,1,0,0.52916667,0,1 @ F,0,0,1,0,0.52916667,0,1 | F,0,0,1,0,0.52916667,0,1 @ F,0,0,1,0,0.52916667,0,1 @ F,0,0,1,0,0.52916667,0,1 @ F,0,0,1,0,0.52916667,0,1 @ F,0,0,1,0,0.52916667,0,1 @ F,0,0,1,0,0.52916667,0,1 | F,0,0,1,0,0.52916667,0,1 @ F,0,0,1,0,0.52916667,0,1 @ F,0,0,1,0,0.52916667,0,1 @ F,0,0,1,0,0.52916667,0,1 @ F,0,0,1,0,0.52916667,0,1 @ F,0,0,1,0,0.52916667,0,1"
       unit="px"
       method="auto"
       mode="F"
       radius="2"
       chamfer_steps="1"
       flexible="false"
       use_knot_distance="true"
       apply_no_radius="true"
       apply_with_radius="true"
       only_selected="false"
       hide_knots="false"
       nodesatellites_param="F,0,0,1,0,0.52916667,0,1 @ F,0,0,1,0,0.52916667,0,1 @ F,0,0,1,0,0.52916667,0,1 @ F,0,0,1,0,0.52916667,0,1 @ F,0,0,1,0,0.52916667,0,1 @ F,0,0,1,0,0.52916667,0,1 @ F,0,0,1,0,0.52916667,0,1 @ F,0,0,1,0,0.52916667,0,1 @ F,0,0,1,0,0.52916667,0,1 @ F,0,0,1,0,0.52916667,0,1 @ F,0,0,1,0,0.52916667,0,1 @ F,0,0,1,0,0.52916667,0,1 @ F,0,0,1,0,0.52916667,0,1 @ F,0,0,1,0,0.52916667,0,1 @ F,0,0,1,0,0.52916667,0,1 @ F,0,0,1,0,0.52916667,0,1 @ F,0,0,1,0,0.52916667,0,1 @ F,0,0,1,0,0.52916667,0,1 @ F,0,0,1,0,0.52916667,0,1 @ F,0,0,1,0,0.52916667,0,1 | F,0,0,1,0,0.52916667,0,1 @ F,0,0,1,0,0.52916667,0,1 @ F,0,0,1,0,0.52916667,0,1 @ F,0,0,1,0,0.52916667,0,1 @ F,0,0,1,0,0.52916667,0,1 @ F,0,0,1,0,0.52916667,0,1 | F,0,0,1,0,0.52916667,0,1 @ F,0,0,1,0,0.52916667,0,1 @ F,0,0,1,0,0.52916667,0,1 @ F,0,0,1,0,0.52916667,0,1 @ F,0,0,1,0,0.52916667,0,1 @ F,0,0,1,0,0.52916667,0,1 @ F,0,0,1,0,0.52916667,0,1 @ F,0,0,1,0,0.52916667,0,1 @ F,0,0,1,0,0.52916667,0,1 @ F,0,0,1,0,0.52916667,0,1 @ F,0,0,1,0,0.52916667,0,1 @ F,0,0,1,0,0.52916667,0,1 @ F,0,0,1,0,0.52916667,0,1 @ F,0,0,1,0,0.52916667,0,1 @ F,0,0,1,0,0.52916667,0,1 @ F,0,0,1,0,0.52916667,0,1 @ F,0,0,1,0,0.52916667,0,1 @ F,0,0,1,0,0.52916667,0,1 @ F,0,0,1,0,0.52916667,0,1 @ F,0,0,1,0,0.52916667,0,1 @ F,0,0,1,0,0.52916667,0,1 @ F,0,0,1,0,0.52916667,0,1 @ F,0,0,1,0,0.52916667,0,1 @ F,0,0,1,0,0.52916667,0,1 @ F,0,0,1,0,0.52916667,0,1 | F,0,0,1,0,0.52916667,0,1 @ F,0,0,1,0,0.52916667,0,1 @ F,0,0,1,0,0.52916667,0,1 @ F,0,0,1,0,0.52916667,0,1 @ F,0,0,1,0,0.52916667,0,1 @ F,0,0,1,0,0.52916667,0,1 @ F,0,0,1,0,0.52916667,0,1 @ F,0,0,1,0,0.52916667,0,1 @ F,0,0,1,0,0.52916667,0,1 @ F,0,0,1,0,0.52916667,0,1 @ F,0,0,1,0,0.52916667,0,1 @ F,0,0,1,0,0.52916667,0,1 @ F,0,0,1,0,0.52916667,0,1 @ F,0,0,1,0,0.52916667,0,1 @ F,0,0,1,0,0.52916667,0,1 @ F,0,0,1,0,0.52916667,0,1 | F,0,0,1,0,0.52916667,0,1 @ F,0,0,1,0,0.52916667,0,1 @ F,0,0,1,0,0.52916667,0,1 @ F,0,0,1,0,0.52916667,0,1 @ F,0,0,1,0,0.52916667,0,1 @ F,0,0,1,0,0.52916667,0,1 | F,0,0,1,0,0.52916667,0,1 @ F,0,0,1,0,0.52916667,0,1 @ F,0,0,1,0,0.52916667,0,1 @ F,0,0,1,0,0.52916667,0,1 @ F,0,0,1,0,0.52916667,0,1 @ F,0,0,1,0,0.52916667,0,1" />
    <inkscape:path-effect
       effect="offset"
       id="path-effect972"
       is_visible="true"
       lpeversion="1.2"
       linejoin_type="miter"
       unit="mm"
       offset="0.2"
       miter_limit="4"
       attempt_force_join="false"
       update_on_knot_move="true" />
  </defs>
  <sodipodi:namedview
     id="base"
     pagecolor="#ffffff"
     bordercolor="#666666"
     borderopacity="1.0"
     inkscape:pageopacity="0.0"
     inkscape:pageshadow="2"
     inkscape:zoom="1.5182462"
     inkscape:cx="245.01955"
     inkscape:cy="22.39426"
     inkscape:document-units="mm"
     inkscape:current-layer="layer1"
     showgrid="false"
     showguides="true"
     inkscape:guide-bbox="true"
     inkscape:window-width="1766"
     inkscape:window-height="1346"
     inkscape:window-x="0"
     inkscape:window-y="60"
     inkscape:window-maximized="0"
     inkscape:snap-global="true"
     inkscape:snap-bbox="true"
     inkscape:snap-bbox-midpoints="false"
     inkscape:pagecheckerboard="0"
     inkscape:bbox-nodes="true"
     inkscape:snap-intersection-paths="true"
     inkscape:object-paths="true"
     inkscape:snap-bbox-edge-midpoints="true"
     fit-margin-top="0"
     fit-margin-left="0"
     fit-margin-right="0"
     fit-margin-bottom="0"
     inkscape:showpageshadow="2"
     inkscape:deskcolor="#d1d1d1">
    <inkscape:grid
       type="axonomgrid"
       id="grid815"
       units="mm"
       empspacing="12"
       spacingy="1"
       originx="-25.582032"
       originy="-19.09881"
       gridanglex="30"
       gridanglez="30"
       visible="false" />
    <sodipodi:guide
       position="1082.9303,-1528.2888"
       orientation="0,1"
       id="guide37689"
       inkscape:locked="false" />
    <sodipodi:guide
       position="1082.9303,-1576.2888"
       orientation="0,1"
       id="guide37691"
       inkscape:locked="false" />
    <sodipodi:guide
       position="1082.9303,-1540.2888"
       orientation="0,1"
       id="guide37693"
       inkscape:locked="false" />
    <sodipodi:guide
       position="1082.9303,-1564.2888"
       orientation="0,1"
       id="guide37695"
       inkscape:locked="false" />
    <sodipodi:guide
       position="-13.457675,13.455413"
       orientation="0,-1"
       id="guide894"
       inkscape:locked="false" />
    <sodipodi:guide
       position="9.9250096,34.955413"
       orientation="0,-1"
       id="guide896"
       inkscape:locked="false" />
    <sodipodi:guide
       position="101.23635,34.955413"
       orientation="1,0"
       id="guide1030"
       inkscape:locked="false" />
    <sodipodi:guide
       position="57.352559,30.044322"
       orientation="1,0"
       id="guide1032"
       inkscape:locked="false" />
    <sodipodi:guide
       position="108.24422,6.6041835"
       orientation="0,-1"
       id="guide1034"
       inkscape:locked="false" />
  </sodipodi:namedview>
  <metadata
     id="metadata5">
    <rdf:RDF>
      <cc:Work
         rdf:about="">
        <dc:format>image/svg+xml</dc:format>
        <dc:type
           rdf:resource="http://purl.org/dc/dcmitype/StillImage" />
      </cc:Work>
    </rdf:RDF>
  </metadata>
  <g
     inkscape:label="Layer 1"
     inkscape:groupmode="layer"
     id="layer1"
     transform="translate(-25.582031,-19.09881)">
    <path
       id="path968"
       style="fill:#ffffff;fill-opacity:1;fill-rule:evenodd;stroke:none;stroke-width:0.0700042px;stroke-linecap:butt;stroke-linejoin:miter;stroke-opacity:1"
       d="m 43.508533,19.221628 -6.011206,3.470806 a 0.91643847,0.91643847 0.00116589 0 1 -0.916518,-1.8e-5 L 34.89966,21.721647 a 0.91627133,0.91627133 179.99664 0 0 -0.916476,5.3e-5 l -2.745665,1.585896 a 0.91674179,0.91674179 119.99463 0 0 -0.458222,0.793836 v 1.939714 a 0.9167437,0.9167437 119.99458 0 1 -0.458222,0.793836 l -4.280822,2.472614 a 0.9167437,0.9167437 119.99458 0 0 -0.458222,0.793836 l 0,18.056901 v 2.115235 a 0.91692054,0.91692054 60.010201 0 0 0.458178,0.793913 l 0.915676,0.529101 a 2288.1291,2288.1291 30.007152 0 0 0.916477,0.529281 l 1.979885,1.142806 a 0.30555207,0.30555207 149.99695 0 0 0.4583,-0.264633 v -1.402604 a 0.91721457,0.91721457 60.018154 0 0 -0.458104,-0.79404 l -1.681448,-0.972206 a 0.91721457,0.91721457 60.018154 0 1 -0.458104,-0.79404 V 31.333854 a 0.91688292,0.91688292 119.99082 0 1 0.458187,-0.793897 l 3.214485,-1.857258 a 0.91613034,0.91613034 179.99282 0 1 0.91644,-1.15e-4 l 1.68115,0.970769 a 0.91651564,0.91651564 0.00325503 0 0 0.916537,5.2e-5 l 2.747495,-1.586107 a 0.9164974,0.9164974 120.00125 0 0 0.458284,-0.79373 v -1.939714 a 0.91690644,0.91690644 119.99018 0 1 0.458181,-0.793907 l 4.944966,-2.857238 a 0.9164511,0.9164511 179.98286 0 1 0.91652,-2.74e-4 l 1.682931,0.971067 a 0.91673325,0.91673325 179.9905 0 0 0.916591,-1.52e-4 l 1.214356,-0.701232 a 0.305504,0.305504 89.99478 0 0 -4.8e-5,-0.529153 l -3.813869,-2.201399 a 0.91662475,0.91662475 179.99612 0 0 -0.916564,6.2e-5 z m -8.609052,4.961265 0.617054,0.35687 a 0.91733246,0.91733246 60.021341 0 1 0.458074,0.794091 v 0.707292 a 0.91733246,0.91733246 119.97866 0 1 -0.458074,0.794091 l -0.617054,0.35687 a 0.9149688,0.9149688 0 0 1 -0.916149,0 l -0.617054,-0.35687 a 0.91733246,0.91733246 60.021341 0 1 -0.458075,-0.794091 v -0.707292 a 0.91733246,0.91733246 119.97866 0 1 0.458075,-0.794091 l 0.617054,-0.35687 a 0.9149688,0.9149688 180 0 1 0.916149,0 z m 17.27115,0.03871 -17.470168,10.086081 a 0.91652877,0.91652877 120.0004 0 0 -0.458276,0.793743 v 5.939714 a 0.91721457,0.91721457 119.98185 0 1 -0.458104,0.79404 l -1.681448,0.972206 a 0.91721457,0.91721457 119.98185 0 0 -0.458104,0.79404 v 3.172136 a 0.91721457,0.91721457 60.018154 0 0 0.458104,0.79404 l 1.681448,0.972206 a 0.91721457,0.91721457 60.018154 0 1 0.458104,0.79404 v 5.939714 a 0.91692054,0.91692054 60.010201 0 0 0.458178,0.793913 l 0.915676,0.529101 a 2863.9272,2863.9272 30.009816 0 0 0.916453,0.529323 l 6.976028,4.027487 a 0.91689704,0.91689704 0.00879516 0 0 0.916631,1.4e-4 l 0.149694,-0.08636 a 0.91620451,0.91620451 120.00918 0 0 0.458356,-0.793603 V 41.333854 A 0.91676155,0.91676155 119.9941 0 1 45.49142,40.54001 l 5.612863,-3.242129 A 0.30544187,0.30544187 29.9941 0 1 51.5625,37.56237 v 18.941666 a 0.30548764,0.30548764 29.997817 0 0 0.458252,0.264549 l 1.214356,-0.701232 a 0.91662421,0.91662421 119.99782 0 0 0.458251,-0.793785 V 35.103385 a 0.91765857,0.91765857 60.030155 0 0 -0.457993,-0.794232 l -0.15042,-0.08706 a 0.91537123,0.91537123 0.02854493 0 0 -0.91625,-4.57e-4 l -8.808095,5.086017 a 0.91660302,0.91660302 119.99839 0 0 -0.458257,0.793775 V 57.81263 a 0.30544187,0.30544187 150.0059 0 1 -0.458218,0.264489 L 36.831264,54.83499 a 0.91676155,0.91676155 60.0059 0 1 -0.458217,-0.793844 l 0,-4.707292 a 0.91721457,0.91721457 119.98185 0 1 0.458104,-0.79404 l 1.681448,-0.972206 a 0.91721457,0.91721457 119.98185 0 0 0.458104,-0.79404 v -3.172136 a 0.91721457,0.91721457 60.018154 0 0 -0.458104,-0.79404 l -1.681448,-0.972206 a 0.91721457,0.91721457 60.018154 0 1 -0.458104,-0.79404 l 0,-4.707292 a 0.91661308,0.91661308 119.99812 0 1 0.458254,-0.79378 l 17.47021,-10.087961 a 0.30556458,0.30556458 90.000301 0 0 3e-6,-0.529231 L 53.087158,24.22165 a 0.9164777,0.9164777 0.00258349 0 0 -0.916527,-4.2e-5 z m 6.062419,3.49986 -1.2161,0.701596 a 0.30552709,0.30552709 90.019382 0 0 -1.79e-4,0.529183 l 2.747708,1.587694 a 0.91692054,0.91692054 60.010201 0 1 0.458177,0.793913 l 0,5.707292 a 0.91721457,0.91721457 119.98185 0 1 -0.458104,0.79404 l -1.681448,0.972206 A 0.91721457,0.91721457 119.98185 0 0 57.625,39.601432 v 3.172136 a 0.91721457,0.91721457 60.018154 0 0 0.458104,0.79404 l 1.681448,0.972206 a 0.91721457,0.91721457 60.018154 0 1 0.458104,0.79404 v 3.707292 a 0.91721457,0.91721457 119.98185 0 1 -0.458104,0.79404 l -1.681448,0.972206 A 0.91721457,0.91721457 119.98185 0 0 57.625,51.601432 v 1.402604 a 0.30548884,0.30548884 29.997915 0 0 0.458253,0.26455 l 3.81201,-2.201235 a 0.91662061,0.91662061 119.99791 0 0 0.458253,-0.793783 v -4.939714 a 0.91721457,0.91721457 119.98185 0 1 0.458104,-0.79404 l 1.681448,-0.972206 a 0.91721457,0.91721457 119.98185 0 0 0.458104,-0.79404 v -3.172136 a 0.91721457,0.91721457 60.018154 0 0 -0.458104,-0.79404 L 62.81162,37.835186 a 0.91721457,0.91721457 60.018154 0 1 -0.458104,-0.79404 V 30.101432 A 0.91674179,0.91674179 60.005365 0 0 61.895293,29.307596 L 59.149628,27.7217 a 0.91668452,0.91668452 0.01454543 0 0 -0.916578,-2.32e-4 z m 3.512134,11.961425 0.617054,0.35687 a 0.91733246,0.91733246 60.021341 0 1 0.458074,0.794091 v 0.707292 a 0.91733246,0.91733246 119.97866 0 1 -0.458074,0.794091 l -0.617054,0.35687 a 0.91438574,0.91438574 0.01583111 0 1 -0.916003,-2.53e-4 L 60.213787,42.33549 a 0.91791834,0.91791834 60.037172 0 1 -0.457928,-0.794344 v -0.707292 a 0.91791834,0.91791834 119.96283 0 1 0.457928,-0.794344 l 0.615394,-0.356364 a 0.91438574,0.91438574 179.98417 0 1 0.916003,-2.53e-4 z m -25.980469,4 0.617054,0.35687 a 0.91733246,0.91733246 60.021341 0 1 0.458075,0.794091 v 0.707292 a 0.91733246,0.91733246 119.97866 0 1 -0.458075,0.794091 l -0.617054,0.35687 a 0.9149688,0.9149688 0 0 1 -0.916149,0 l -0.617054,-0.35687 a 0.91733246,0.91733246 60.021341 0 1 -0.458075,-0.794091 v -0.707292 a 0.91733246,0.91733246 119.97866 0 1 0.458075,-0.794091 l 0.617054,-0.35687 a 0.9149688,0.9149688 180 0 1 0.916149,0 z"
       inkscape:path-effect="#path-effect972;#path-effect889"
       inkscape:original-d="m 37.039423,44.188158 v 1.999892 l -1.7323,0.9997 -1.732,-0.9997 v -1.999892 l 1.732,-1.000394 z m 6.92831,-25.000209 -6.92778,3.999882 -2.5983,-1.500193 -3.4639,1.999791 v 2.999887 l -5.19702,3.000587 v 18.999746 2.0004 l 1.7322,0.9999 2.5983,1.50019 v -2.00039 l -2.5983,-1.5002 V 30.687798 l 4.33092,-2.500389 2.5978,1.500193 3.4639,-2.000391 v -2.999287 l 6.0619,-3.499984 2.5983,1.500193 1.7317,-1.000395 z m -9.5265,15.500131 -2.1e-4,6.99979 -2.5978,1.499693 v 3.999787 l 2.5978,1.50009 2.1e-4,7.000189 1.7322,1.00049 7.7943,4.49998 v 0 l 0.8656,-0.4997 V 40.688154 l 6.9283,-3.999682 3.3e-4,19.999447 1.73205,-0.99999 -1.8e-4,-20.999349 -0.8661,-0.500197 -9.5261,5.499875 v 18.999751 l -6.9282,-3.99978 -2.1e-4,-6.000289 2.5977,-1.50009 v -3.999786 l -2.5977,-1.499594 2.1e-4,-5.999994 18.1866,-10.500553 -1.73205,-0.999996 z m -1.73178,-8.000664 v -1.999991 l 1.7322,-0.999996 1.7319,0.999996 3e-4,1.999891 -1.7322,1.000896 z m 25.98099,1.000395 -1.73233,1.000096 3.4641,1.999991 -4.2e-4,7.000473 -2.5978,1.499694 v 3.999782 l 2.5978,1.500093 4.2e-4,5.000019 -2.59807,1.49998 v 1.99999 l 4.33012,-2.49998 -2.7e-4,-6.000009 2.5978,-1.500093 v -3.999782 l -2.5978,-1.499694 4.2e-4,-8.000368 z m 2.59705,15.499836 -1.7318,-0.999795 v -1.999891 l 1.7318,-1.000296 1.7326,1.000296 v 1.999891 z"
       sodipodi:nodetypes="cccccccccccccccccccccccccccccccccccccccccccccccccccccccccccccccccccccccccccccccccccccc"
       inkscape:export-filename="/home/simon/code/scipp/scippnexus/docs/_static/logo.png"
       inkscape:export-xdpi="300.11737"
       inkscape:export-ydpi="300.11737" />
    <g
       aria-label="scipp"
       id="text897"
       style="font-size:41.0089px;line-height:19.2229px;font-family:Lato;-inkscape-font-specification:Lato;letter-spacing:0px;word-spacing:0px;fill:#ffffff;stroke-width:0.264583px">
      <path
         d="m 96.46149,33.760453 q -0.205045,0.328071 -0.430594,0.471602 -0.225548,0.123027 -0.574124,0.123027 -0.36908,0 -0.799674,-0.205045 -0.410089,-0.205044 -0.963709,-0.451098 -0.55362,-0.266557 -1.271276,-0.471602 -0.697151,-0.205044 -1.66086,-0.205044 -1.496825,0 -2.358012,0.635637 -0.861187,0.635638 -0.861187,1.660861 0,0.676647 0.430594,1.148249 0.451098,0.451098 1.168753,0.799674 0.738161,0.348575 1.660861,0.635638 0.9227,0.266557 1.886409,0.594629 0.963709,0.328071 1.88641,0.758664 0.9227,0.410089 1.640356,1.066232 0.73816,0.635638 1.168753,1.537833 0.451098,0.902196 0.451098,2.173472 0,1.517329 -0.55362,2.80911 -0.55362,1.271276 -1.619852,2.21448 -1.066231,0.922701 -2.645074,1.455816 -1.558338,0.512611 -3.588278,0.512611 -1.086736,0 -2.132463,-0.205044 -1.025223,-0.18454 -1.988932,-0.533116 -0.943205,-0.348575 -1.763383,-0.820178 -0.799673,-0.471602 -1.414807,-1.025222 l 1.168754,-1.927418 q 0.225549,-0.348576 0.533116,-0.533116 0.307567,-0.18454 0.779169,-0.18454 0.471602,0 0.881691,0.266558 0.430594,0.266557 0.984214,0.574124 0.55362,0.307567 1.29178,0.574125 0.758665,0.266558 1.906914,0.266558 0.902196,0 1.537834,-0.205045 0.656142,-0.225549 1.066231,-0.574124 0.430594,-0.348576 0.615134,-0.799674 0.205044,-0.471602 0.205044,-0.963709 0,-0.73816 -0.451098,-1.209763 -0.430593,-0.471602 -1.168753,-0.820178 -0.717656,-0.348575 -1.660861,-0.615133 -0.9227,-0.287062 -1.906914,-0.615134 -0.963709,-0.328071 -1.906914,-0.758664 -0.9227,-0.451098 -1.66086,-1.127745 -0.717656,-0.676647 -1.168754,-1.66086 -0.430593,-0.984214 -0.430593,-2.378517 0,-1.29178 0.512611,-2.460534 0.512611,-1.168753 1.496825,-2.02994 1.004718,-0.881691 2.481038,-1.394303 1.496825,-0.533115 3.444748,-0.533115 2.173472,0 3.957359,0.717655 1.783887,0.717656 2.973145,1.88641 z"
         style="font-weight:bold;-inkscape-font-specification:'Lato Bold';fill:#ffffff"
         id="path519" />
      <path
         d="m 116.67889,34.109028 q -0.22555,0.287063 -0.4511,0.451098 -0.20504,0.164036 -0.61513,0.164036 -0.38959,0 -0.75867,-0.225549 -0.36908,-0.246053 -0.88169,-0.533116 -0.51261,-0.307567 -1.23027,-0.533115 -0.69715,-0.246054 -1.74287,-0.246054 -1.33279,0 -2.33751,0.492107 -1.00472,0.471602 -1.68137,1.373798 -0.65614,0.902196 -0.98421,2.193976 -0.32807,1.271276 -0.32807,2.891128 0,1.681365 0.34857,2.993649 0.36908,1.312285 1.04573,2.214481 0.67665,0.881691 1.64036,1.353294 0.96371,0.451097 2.17347,0.451097 1.20976,0 1.94792,-0.287062 0.75867,-0.307567 1.27128,-0.656142 0.51261,-0.36908 0.88169,-0.656143 0.38958,-0.307566 0.86119,-0.307566 0.61513,0 0.9227,0.471602 l 1.45581,1.8454 q -0.84068,0.984214 -1.82489,1.660861 -0.98422,0.656142 -2.05045,1.066231 -1.04573,0.389585 -2.17347,0.55362 -1.12775,0.164036 -2.23499,0.164036 -1.94792,0 -3.67029,-0.717656 -1.72238,-0.73816 -3.01416,-2.132462 -1.27127,-1.394303 -2.02994,-3.403739 -0.73816,-2.029941 -0.73816,-4.613501 0,-2.317003 0.65615,-4.28543 0.67664,-1.988932 1.96842,-3.424244 1.29178,-1.455815 3.1987,-2.275993 1.90691,-0.820178 4.38795,-0.820178 2.35801,0 4.12139,0.758664 1.78389,0.758665 3.1987,2.173472 z"
         style="font-weight:bold;-inkscape-font-specification:'Lato Bold';fill:#ffffff"
         id="path521" />
      <path
         d="m 126.84907,29.659563 v 21.037565 h -5.0646 V 29.659563 Z m 0.75866,-6.130831 q 0,0.656143 -0.26656,1.230267 -0.26655,0.574125 -0.71765,1.004718 -0.4306,0.430594 -1.02522,0.697152 -0.59463,0.246053 -1.27128,0.246053 -0.65614,0 -1.25077,-0.246053 -0.57413,-0.266558 -1.00472,-0.697152 -0.43059,-0.430593 -0.69715,-1.004718 -0.24605,-0.574124 -0.24605,-1.230267 0,-0.676647 0.24605,-1.271276 0.26656,-0.594629 0.69715,-1.025222 0.43059,-0.430594 1.00472,-0.676647 0.59463,-0.266558 1.25077,-0.266558 0.67665,0 1.27128,0.266558 0.59462,0.246053 1.02522,0.676647 0.4511,0.430593 0.71765,1.025222 0.26656,0.594629 0.26656,1.271276 z"
         style="font-weight:bold;-inkscape-font-specification:'Lato Bold';fill:#ffffff"
         id="path523" />
      <path
         d="M 133.18494,57.914695 V 30.295201 h 1.06623 q 0.26656,0 0.43059,0.123026 0.16404,0.102523 0.18454,0.389585 l 0.18454,3.157685 q 1.3533,-1.8454 3.15769,-2.932136 1.82489,-1.086736 4.08038,-1.086736 3.77282,0 5.86428,2.604065 2.09145,2.604065 2.09145,7.812196 0,2.234985 -0.59463,4.182907 -0.57412,1.927419 -1.70187,3.36273 -1.12774,1.414807 -2.7886,2.234985 -1.64036,0.820178 -3.79333,0.820178 -2.09145,0 -3.60878,-0.758665 -1.51733,-0.758664 -2.62457,-2.255489 v 9.965163 z m 8.55035,-26.389227 q -2.02994,0 -3.6908,1.066231 -1.64035,1.045727 -2.91163,2.932136 v 10.703323 q 1.16875,1.763383 2.58356,2.481039 1.43531,0.717655 3.26021,0.717655 1.80439,0 3.15768,-0.656142 1.3533,-0.656142 2.25549,-1.8454 0.9227,-1.209763 1.3738,-2.870623 0.4716,-1.681365 0.4716,-3.690801 0,-4.551988 -1.68136,-6.684451 -1.66086,-2.152967 -4.81855,-2.152967 z"
         style="font-weight:300;-inkscape-font-specification:'Lato Light';fill:#ffffff"
         id="path525" />
      <path
         d="M 155.12469,57.914695 V 30.295201 h 1.06623 q 0.26656,0 0.4306,0.123026 0.16403,0.102523 0.18454,0.389585 l 0.18454,3.157685 q 1.35329,-1.8454 3.15768,-2.932136 1.8249,-1.086736 4.08039,-1.086736 3.77282,0 5.86427,2.604065 2.09145,2.604065 2.09145,7.812196 0,2.234985 -0.59463,4.182907 -0.57412,1.927419 -1.70186,3.36273 -1.12775,1.414807 -2.78861,2.234985 -1.64036,0.820178 -3.79332,0.820178 -2.09146,0 -3.60879,-0.758665 -1.51733,-0.758664 -2.62457,-2.255489 v 9.965163 z m 8.55036,-26.389227 q -2.02994,0 -3.6908,1.066231 -1.64036,1.045727 -2.91164,2.932136 v 10.703323 q 1.16876,1.763383 2.58357,2.481039 1.43531,0.717655 3.2602,0.717655 1.80439,0 3.15769,-0.656142 1.35329,-0.656142 2.25549,-1.8454 0.9227,-1.209763 1.3738,-2.870623 0.4716,-1.681365 0.4716,-3.690801 0,-4.551988 -1.68137,-6.684451 -1.66086,-2.152967 -4.81854,-2.152967 z"
         style="font-weight:300;-inkscape-font-specification:'Lato Light';fill:#ffffff"
         id="path527" />
    </g>
    <g
       aria-label="uncertainty"
       id="text5266"
       style="font-size:9.26903px;line-height:7.44833px;font-family:Lato;-inkscape-font-specification:Lato;letter-spacing:0px;word-spacing:0px;fill:#ffffff;stroke-width:0.27975px"
       transform="matrix(0.94578278,0,0,0.94578278,4.4935128,2.7476002)">
      <path
         d="m 83.704747,58.960819 v 2.993896 q 0,0.53297 0.245629,0.824944 0.245629,0.291975 0.741522,0.291975 0.361492,0 0.681274,-0.171477 0.319781,-0.171478 0.588583,-0.477356 v -3.461982 h 0.824944 v 4.694763 H 86.29544 q -0.176111,0 -0.222456,-0.171477 L 86.0081,62.978943 q -0.305878,0.33832 -0.685908,0.546873 -0.38003,0.203919 -0.871289,0.203919 -0.384664,0 -0.681273,-0.125132 -0.291975,-0.129767 -0.491259,-0.361492 -0.199284,-0.231726 -0.301243,-0.560777 -0.09732,-0.32905 -0.09732,-0.727619 v -2.993896 z"
         id="path813"
         style="stroke-width:0.27975px;fill:#ffffff" />
      <path
         d="m 88.14461,63.655582 v -4.694763 h 0.491258 q 0.176112,0 0.222457,0.171477 l 0.06488,0.509797 q 0.305878,-0.33832 0.681274,-0.546873 0.38003,-0.208553 0.875923,-0.208553 0.384665,0 0.676639,0.129766 0.296609,0.125132 0.491259,0.361492 0.199284,0.231726 0.301243,0.560777 0.10196,0.32905 0.10196,0.727618 v 2.989262 H 91.226562 V 60.66632 q 0,-0.532969 -0.245629,-0.824943 -0.240995,-0.296609 -0.741523,-0.296609 -0.366126,0 -0.685908,0.176111 -0.315147,0.176112 -0.583949,0.477355 v 3.457348 z"
         id="path815"
         style="stroke-width:0.27975px;fill:#ffffff" />
      <path
         d="m 96.500638,59.795032 q -0.03708,0.05098 -0.07415,0.07879 -0.03708,0.02781 -0.106594,0.02781 -0.06952,0 -0.152939,-0.05561 -0.07879,-0.06025 -0.203918,-0.129766 -0.125132,-0.06952 -0.305878,-0.125132 -0.176112,-0.06025 -0.435645,-0.06025 -0.342954,0 -0.607121,0.125132 -0.264167,0.120498 -0.444913,0.352223 -0.176112,0.231726 -0.268802,0.560777 -0.08806,0.32905 -0.08806,0.736887 0,0.426376 0.09732,0.760061 0.09732,0.32905 0.273436,0.556142 0.176112,0.222456 0.426376,0.342954 0.254898,0.115863 0.570045,0.115863 0.301243,0 0.495893,-0.06952 0.19465,-0.07415 0.324416,-0.162208 0.129766,-0.08806 0.213188,-0.157574 0.08342,-0.07415 0.166842,-0.07415 0.106594,0 0.157574,0.07879 l 0.231725,0.301243 q -0.305878,0.375396 -0.764695,0.551508 -0.458817,0.171477 -0.968613,0.171477 -0.440279,0 -0.820309,-0.162208 -0.375396,-0.162208 -0.653467,-0.468086 -0.278071,-0.310513 -0.440279,-0.760061 -0.157573,-0.449548 -0.157573,-1.024228 0,-0.5237 0.14367,-0.968613 0.148304,-0.444914 0.426375,-0.764695 0.282705,-0.324416 0.695177,-0.505162 0.412472,-0.180746 0.945441,-0.180746 0.491259,0 0.871289,0.162208 0.38003,0.157573 0.672005,0.449548 z"
         id="path817"
         style="stroke-width:0.27975px;fill:#ffffff" />
      <path
         d="m 99.485274,58.886667 q 0.421741,0 0.778596,0.14367 0.35686,0.139035 0.61639,0.407837 0.25954,0.264167 0.40321,0.658101 0.1483,0.389299 0.1483,0.889827 0,0.19465 -0.0417,0.259533 -0.0417,0.06488 -0.15757,0.06488 h -3.123667 q 0.0093,0.444913 0.120497,0.773964 0.111229,0.32905 0.305878,0.551507 0.19465,0.217822 0.463452,0.329051 0.268802,0.106594 0.602487,0.106594 0.310512,0 0.532973,-0.06952 0.22709,-0.07415 0.3893,-0.157574 0.1622,-0.08342 0.2688,-0.152939 0.11123,-0.07415 0.19001,-0.07415 0.10196,0 0.15758,0.07879 l 0.23172,0.301243 q -0.15294,0.185381 -0.36613,0.324416 -0.21318,0.134401 -0.45881,0.222457 -0.241,0.08806 -0.50053,0.129766 -0.259533,0.04635 -0.514431,0.04635 -0.486624,0 -0.899096,-0.162208 -0.407837,-0.166843 -0.709081,-0.48199 -0.296608,-0.319781 -0.463451,-0.787867 -0.166843,-0.468086 -0.166843,-1.075208 0,-0.491258 0.148305,-0.917634 0.152939,-0.426375 0.435644,-0.736888 0.282706,-0.315147 0.690543,-0.491258 0.407837,-0.180746 0.917634,-0.180746 z m 0.01854,0.607121 q -0.597852,0 -0.940806,0.347589 -0.342955,0.342954 -0.426376,0.95471 h 2.553618 q 0,-0.28734 -0.0788,-0.5237 -0.0788,-0.240995 -0.23172,-0.412472 -0.15294,-0.176112 -0.3754,-0.268802 -0.217821,-0.09732 -0.500526,-0.09732 z"
         id="path819"
         style="stroke-width:0.27975px;fill:#ffffff" />
      <path
         d="m 102.48381,63.655582 v -4.694763 h 0.47272 q 0.1344,0 0.18538,0.05098 0.051,0.05098 0.0695,0.176111 l 0.0556,0.732253 q 0.24099,-0.491258 0.59322,-0.764694 0.35685,-0.278071 0.83421,-0.278071 0.19465,0 0.35222,0.04635 0.15758,0.04171 0.29198,0.120497 l -0.1066,0.616391 q -0.0324,0.115863 -0.14367,0.115863 -0.0649,0 -0.19928,-0.04171 -0.1344,-0.04635 -0.3754,-0.04635 -0.43101,0 -0.72298,0.250264 -0.28734,0.250263 -0.48199,0.727618 v 2.989262 z"
         id="path821"
         style="stroke-width:0.27975px;fill:#ffffff" />
      <path
         d="m 107.64202,63.729735 q -0.55614,0 -0.85738,-0.310513 -0.29661,-0.310512 -0.29661,-0.894461 v -2.873399 h -0.56541 q -0.0742,0 -0.12514,-0.04171 -0.051,-0.04635 -0.051,-0.139035 v -0.329051 l 0.76933,-0.09732 0.19002,-1.450603 q 0.009,-0.06952 0.0602,-0.111228 0.051,-0.04634 0.12976,-0.04634 h 0.41711 v 1.617445 h 1.34401 v 0.597853 h -1.34401 v 2.817785 q 0,0.296609 0.14367,0.440279 0.14367,0.14367 0.37076,0.14367 0.12977,0 0.22246,-0.03244 0.0973,-0.03708 0.16684,-0.07879 0.0695,-0.04171 0.11586,-0.07415 0.051,-0.03708 0.0881,-0.03708 0.0649,0 0.11586,0.07879 l 0.241,0.393933 q -0.21319,0.199284 -0.51443,0.315147 -0.30125,0.111229 -0.62103,0.111229 z"
         id="path823"
         style="stroke-width:0.27975px;fill:#ffffff" />
      <path
         d="m 113.12464,63.655582 h -0.36612 q -0.1205,0 -0.19465,-0.03708 -0.0741,-0.03708 -0.0973,-0.157573 l -0.0927,-0.435645 q -0.18538,0.166843 -0.36149,0.301244 -0.17611,0.129766 -0.37076,0.222457 -0.19465,0.08806 -0.41711,0.134401 -0.21782,0.04634 -0.48662,0.04634 -0.27344,0 -0.51443,-0.07415 -0.23636,-0.07879 -0.41247,-0.231725 -0.17612,-0.152939 -0.28271,-0.384665 -0.10196,-0.23636 -0.10196,-0.556142 0,-0.278071 0.15294,-0.532969 0.15294,-0.259533 0.49126,-0.458817 0.34295,-0.199284 0.89446,-0.324416 0.55151,-0.129766 1.34864,-0.148304 v -0.366127 q 0,-0.546873 -0.23636,-0.824944 -0.23172,-0.282705 -0.69054,-0.282705 -0.30124,0 -0.5098,0.07879 -0.20391,0.07415 -0.35685,0.171477 -0.14831,0.09269 -0.25954,0.171477 -0.10659,0.07415 -0.21318,0.07415 -0.0834,0 -0.14831,-0.04171 -0.0602,-0.04635 -0.0973,-0.111228 l -0.14831,-0.264167 q 0.3893,-0.375396 0.83885,-0.560777 0.44955,-0.18538 0.99642,-0.18538 0.39393,0 0.69981,0.129766 0.30588,0.129766 0.51443,0.361492 0.20856,0.231726 0.31515,0.560777 0.10659,0.32905 0.10659,0.722984 z M 110.9835,63.15042 q 0.21782,0 0.39857,-0.04171 0.18074,-0.04635 0.33832,-0.125132 0.1622,-0.08342 0.30587,-0.199284 0.14831,-0.115863 0.28734,-0.264168 v -0.977882 q -0.57004,0.01854 -0.96861,0.09269 -0.39857,0.06952 -0.64883,0.185381 -0.25027,0.115862 -0.36613,0.273436 -0.11123,0.157573 -0.11123,0.352223 0,0.185381 0.0602,0.319782 0.0602,0.134401 0.16221,0.222456 0.10196,0.08342 0.24099,0.125132 0.13904,0.03708 0.30125,0.03708 z"
         id="path825"
         style="stroke-width:0.27975px;fill:#ffffff" />
      <path
         d="m 115.2936,58.960819 v 4.694763 h -0.82495 v -4.694763 z m 0.18538,-1.473776 q 0,0.120498 -0.051,0.227091 -0.0464,0.10196 -0.12977,0.185381 -0.0788,0.07879 -0.18538,0.125132 -0.10659,0.04634 -0.22709,0.04634 -0.1205,0 -0.22709,-0.04634 -0.10196,-0.04635 -0.18538,-0.125132 -0.0788,-0.08342 -0.12513,-0.185381 -0.0463,-0.106593 -0.0463,-0.227091 0,-0.120497 0.0463,-0.227091 0.0463,-0.111228 0.12513,-0.190015 0.0834,-0.08342 0.18538,-0.129767 0.10659,-0.04635 0.22709,-0.04635 0.1205,0 0.22709,0.04635 0.10659,0.04635 0.18538,0.129767 0.0834,0.07879 0.12977,0.190015 0.051,0.106594 0.051,0.227091 z"
         id="path827"
         style="stroke-width:0.27975px;fill:#ffffff" />
      <path
         d="m 116.74884,63.655582 v -4.694763 h 0.49126 q 0.17611,0 0.22246,0.171477 l 0.0649,0.509797 q 0.30588,-0.33832 0.68127,-0.546873 0.38003,-0.208553 0.87593,-0.208553 0.38466,0 0.67663,0.129766 0.29661,0.125132 0.49126,0.361492 0.19929,0.231726 0.30125,0.560777 0.10196,0.32905 0.10196,0.727618 v 2.989262 h -0.82495 V 60.66632 q 0,-0.532969 -0.24563,-0.824943 -0.24099,-0.296609 -0.74152,-0.296609 -0.36613,0 -0.68591,0.176111 -0.31514,0.176112 -0.58395,0.477355 v 3.457348 z"
         id="path829"
         style="stroke-width:0.27975px;fill:#ffffff" />
      <path
         d="m 123.32521,63.729735 q -0.55614,0 -0.85738,-0.310513 -0.29661,-0.310512 -0.29661,-0.894461 v -2.873399 h -0.56541 q -0.0742,0 -0.12514,-0.04171 -0.051,-0.04635 -0.051,-0.139035 v -0.329051 l 0.76932,-0.09732 0.19002,-1.450603 q 0.009,-0.06952 0.0603,-0.111228 0.051,-0.04634 0.12976,-0.04634 h 0.41711 v 1.617445 h 1.34401 v 0.597853 h -1.34401 v 2.817785 q 0,0.296609 0.14367,0.440279 0.14367,0.14367 0.37076,0.14367 0.12977,0 0.22246,-0.03244 0.0973,-0.03708 0.16684,-0.07879 0.0695,-0.04171 0.11586,-0.07415 0.051,-0.03708 0.0881,-0.03708 0.0649,0 0.11586,0.07879 l 0.241,0.393933 q -0.21319,0.199284 -0.51443,0.315147 -0.30125,0.111229 -0.62103,0.111229 z"
         id="path831"
         style="stroke-width:0.27975px;fill:#ffffff" />
      <path
         d="m 126.73621,65.041302 q -0.0417,0.09269 -0.1066,0.148305 -0.0602,0.05561 -0.19001,0.05561 h -0.61176 l 0.85739,-1.863075 -1.93723,-4.421327 h 0.71372 q 0.10659,0 0.16684,0.05561 0.0603,0.05098 0.0881,0.115863 l 1.25596,2.95682 q 0.0417,0.10196 0.0695,0.203919 0.0324,0.101959 0.0556,0.208553 0.0324,-0.106594 0.0649,-0.208553 0.0324,-0.101959 0.0741,-0.208553 l 1.21888,-2.952186 q 0.0278,-0.07415 0.0927,-0.120497 0.0695,-0.05098 0.14831,-0.05098 h 0.6581 z"
         id="path833"
         style="stroke-width:0.27975px;fill:#ffffff" />
    </g>
  </g>
</svg>
